<svg width="272" height="299" viewBox="0 0 272 299" fill="none" xmlns="http://www.w3.org/2000/svg">
<path d="M0 148.083H303V150.917H0V148.083Z" fill="url(#paint0_linear_1283_3174)" fill-opacity="0.32"/>
<path d="M152.936 1.23883e-07L152.936 299H150.064L150.064 0L152.936 1.23883e-07Z" fill="url(#paint1_linear_1283_3174)" fill-opacity="0.32"/>
<path d="M113.676 4.72723L192.098 293.539L189.324 294.273L110.902 5.46075L113.676 4.72723Z" fill="url(#paint2_linear_1283_3174)" fill-opacity="0.32"/>
<path d="M76.9935 19.3206L228.493 278.262L226.006 279.679L74.5062 20.7377L76.9935 19.3206Z" fill="url(#paint3_linear_1283_3174)" fill-opacity="0.32"/>
<path d="M228.494 20.7377L76.9936 279.679L74.5064 278.262L226.006 19.3206L228.494 20.7377Z" fill="url(#paint4_linear_1283_3174)" fill-opacity="0.32"/>
<path d="M192.098 5.46136L113.676 294.273L110.902 293.54L189.324 4.72784L192.098 5.46136Z" fill="url(#paint5_linear_1283_3174)" fill-opacity="0.32"/>
<path d="M5.53391 109.438L298.209 186.825L297.466 189.562L4.79057 112.175L5.53391 109.438Z" fill="url(#paint6_linear_1283_3174)" fill-opacity="0.32"/>
<path d="M21.0152 73.5229L283.421 223.023L281.985 225.477L19.5791 75.9773L21.0152 73.5229Z" fill="url(#paint7_linear_1283_3174)" fill-opacity="0.32"/>
<path d="M45.3887 42.7855L259.642 254.21L257.611 256.214L43.3579 44.7895L45.3887 42.7855Z" fill="url(#paint8_linear_1283_3174)" fill-opacity="0.32"/>
<path d="M19.5791 223.023L281.985 73.5229L283.421 75.9773L21.0152 225.477L19.5791 223.023Z" fill="url(#paint9_linear_1283_3174)" fill-opacity="0.32"/>
<path d="M43.3579 254.21L257.611 42.7854L259.642 44.7894L45.3887 256.214L43.3579 254.21Z" fill="url(#paint10_linear_1283_3174)" fill-opacity="0.32"/>
<path d="M4.79057 186.825L297.466 109.438L298.209 112.175L5.53391 189.562L4.79057 186.825Z" fill="url(#paint11_linear_1283_3174)" fill-opacity="0.32"/>
<defs>
<linearGradient id="paint0_linear_1283_3174" x1="0" y1="143.245" x2="255.458" y2="143.245" gradientUnits="userSpaceOnUse">
<stop stop-color="#FF6E2F" stop-opacity="0.42"/>
<stop offset="0.614583" stop-color="#FF6E2F" stop-opacity="0"/>
</linearGradient>
<linearGradient id="paint1_linear_1283_3174" x1="0" y1="143.245" x2="255.458" y2="143.245" gradientUnits="userSpaceOnUse">
<stop stop-color="#FF6E2F" stop-opacity="0.42"/>
<stop offset="0.614583" stop-color="#FF6E2F" stop-opacity="0"/>
</linearGradient>
<linearGradient id="paint2_linear_1283_3174" x1="0" y1="143.245" x2="255.458" y2="143.245" gradientUnits="userSpaceOnUse">
<stop stop-color="#FF6E2F" stop-opacity="0.42"/>
<stop offset="0.614583" stop-color="#FF6E2F" stop-opacity="0"/>
</linearGradient>
<linearGradient id="paint3_linear_1283_3174" x1="0" y1="143.245" x2="255.458" y2="143.245" gradientUnits="userSpaceOnUse">
<stop stop-color="#FF6E2F" stop-opacity="0.42"/>
<stop offset="0.614583" stop-color="#FF6E2F" stop-opacity="0"/>
</linearGradient>
<linearGradient id="paint4_linear_1283_3174" x1="0" y1="143.245" x2="255.458" y2="143.245" gradientUnits="userSpaceOnUse">
<stop stop-color="#FF6E2F" stop-opacity="0.42"/>
<stop offset="0.614583" stop-color="#FF6E2F" stop-opacity="0"/>
</linearGradient>
<linearGradient id="paint5_linear_1283_3174" x1="0" y1="143.245" x2="255.458" y2="143.245" gradientUnits="userSpaceOnUse">
<stop stop-color="#FF6E2F" stop-opacity="0.42"/>
<stop offset="0.614583" stop-color="#FF6E2F" stop-opacity="0"/>
</linearGradient>
<linearGradient id="paint6_linear_1283_3174" x1="0" y1="143.245" x2="255.458" y2="143.245" gradientUnits="userSpaceOnUse">
<stop stop-color="#FF6E2F" stop-opacity="0.42"/>
<stop offset="0.614583" stop-color="#FF6E2F" stop-opacity="0"/>
</linearGradient>
<linearGradient id="paint7_linear_1283_3174" x1="0" y1="143.245" x2="255.458" y2="143.245" gradientUnits="userSpaceOnUse">
<stop stop-color="#FF6E2F" stop-opacity="0.42"/>
<stop offset="0.614583" stop-color="#FF6E2F" stop-opacity="0"/>
</linearGradient>
<linearGradient id="paint8_linear_1283_3174" x1="0" y1="143.245" x2="255.458" y2="143.245" gradientUnits="userSpaceOnUse">
<stop stop-color="#FF6E2F" stop-opacity="0.42"/>
<stop offset="0.614583" stop-color="#FF6E2F" stop-opacity="0"/>
</linearGradient>
<linearGradient id="paint9_linear_1283_3174" x1="0" y1="143.245" x2="255.458" y2="143.245" gradientUnits="userSpaceOnUse">
<stop stop-color="#FF6E2F" stop-opacity="0.42"/>
<stop offset="0.614583" stop-color="#FF6E2F" stop-opacity="0"/>
</linearGradient>
<linearGradient id="paint10_linear_1283_3174" x1="0" y1="143.245" x2="255.458" y2="143.245" gradientUnits="userSpaceOnUse">
<stop stop-color="#FF6E2F" stop-opacity="0.42"/>
<stop offset="0.614583" stop-color="#FF6E2F" stop-opacity="0"/>
</linearGradient>
<linearGradient id="paint11_linear_1283_3174" x1="0" y1="143.245" x2="255.458" y2="143.245" gradientUnits="userSpaceOnUse">
<stop stop-color="#FF6E2F" stop-opacity="0.42"/>
<stop offset="0.614583" stop-color="#FF6E2F" stop-opacity="0"/>
</linearGradient>
</defs>
</svg>
