<svg width="96" height="96" viewBox="0 0 96 96" fill="none" xmlns="http://www.w3.org/2000/svg">
<g filter="url(#filter0_b_1093_2019)">
<circle cx="48" cy="48" r="48" fill="black" fill-opacity="0.1"/>
</g>
<circle cx="47.9969" cy="47.9988" r="19.2" fill="black"/>
<path d="M42.5918 80.0213L43.6611 80.3116L38.2815 87.8941L37.2287 87.6083L36.4232 78.3462L37.4924 78.6366L38.084 86.4098L38.1498 86.4277L42.5918 80.0213ZM41.3037 83.204L36.9938 82.0337L37.2395 81.129L41.5493 82.2993L41.3037 83.204Z" fill="black"/>
<path d="M30.4947 75.1949L26.6765 80.5113L25.8873 79.9445L26.464 79.1415L26.4087 79.1017C26.1228 79.2952 25.7942 79.3827 25.4227 79.3642C25.0512 79.3457 24.7062 79.2221 24.3878 78.9934C24.3278 78.9504 24.2536 78.8953 24.1653 78.8284C24.077 78.7615 24.0114 78.7091 23.9686 78.6714L24.5652 77.8407C24.5879 77.8675 24.6439 77.9234 24.7332 78.0085C24.8185 78.0943 24.9153 78.1761 25.0238 78.254C25.2822 78.4396 25.5519 78.5511 25.8329 78.5885C26.1099 78.6265 26.3751 78.5932 26.6287 78.4885C26.8783 78.3845 27.0893 78.2125 27.2616 77.9725L29.6779 74.6082L30.4947 75.1949Z" fill="black"/>
<path d="M16.3445 70.5304L17.0231 70.0147L19.0756 72.7153L18.397 73.231L16.3445 70.5304ZM16.5503 73.3928L15.9418 72.5921L20.9087 68.8172C21.1349 68.6453 21.2796 68.4836 21.3428 68.332C21.4021 68.18 21.4114 68.0373 21.3708 67.904C21.3262 67.7702 21.2592 67.6445 21.1698 67.5269C21.1028 67.4387 21.0432 67.3697 20.9912 67.3201C20.9369 67.2721 20.8935 67.2337 20.8609 67.205L21.4564 66.4955C21.518 66.5343 21.596 66.5946 21.6902 66.6764C21.7868 66.7565 21.8918 66.8711 22.0052 67.0204C22.1771 67.2466 22.297 67.5052 22.3647 67.7963C22.4308 68.085 22.4184 68.3763 22.3277 68.6701C22.2352 68.9616 22.0375 69.2225 21.7344 69.4529L16.5503 73.3928Z" fill="black"/>
<path d="M18.3557 49.6162C18.3746 50.1017 18.3283 50.5214 18.217 50.8754C18.1085 51.2293 17.958 51.5266 17.7655 51.7672C17.5757 52.0048 17.3699 52.1962 17.1481 52.3413L16.5549 51.5626C16.6706 51.4671 16.8024 51.3469 16.9503 51.2018C17.101 51.0566 17.2285 50.8612 17.3327 50.6155C17.4396 50.3668 17.4854 50.0452 17.47 49.6506C17.4495 49.1226 17.3048 48.6918 17.036 48.3583C16.7672 48.0247 16.3603 47.8685 15.8152 47.8897L14.4867 47.9413L14.49 48.0264C14.6121 48.0956 14.7638 48.1949 14.9451 48.3243C15.1234 48.451 15.2856 48.6381 15.4317 48.8854C15.5748 49.13 15.6546 49.4653 15.6712 49.8911C15.6917 50.4191 15.5852 50.898 15.3517 51.3279C15.1181 51.7549 14.7676 52.0997 14.3001 52.3623C13.8326 52.6222 13.2582 52.7653 12.5769 52.7918C11.9069 52.8178 11.319 52.7226 10.8131 52.5063C10.3043 52.2901 9.90547 51.9772 9.61663 51.5677C9.32495 51.1582 9.16842 50.6781 9.14703 50.1274C9.13049 49.7016 9.18834 49.361 9.32058 49.1057C9.44987 48.8476 9.60134 48.6484 9.775 48.5081C9.94571 48.365 10.0864 48.2543 10.1971 48.1761L10.1931 48.0739L9.15413 48.1143L9.11643 47.1434L15.8443 46.8821C16.4064 46.8603 16.8684 46.9703 17.2303 47.2121C17.595 47.4509 17.868 47.7815 18.0493 48.2038C18.2333 48.6231 18.3354 49.0939 18.3557 49.6162ZM14.7632 49.7899C14.7475 49.3868 14.642 49.0497 14.4467 48.7787C14.2514 48.5076 13.9777 48.3065 13.6258 48.1751C13.2738 48.0438 12.8566 47.9875 12.374 48.0063C11.9027 48.0246 11.4896 48.1117 11.1346 48.2676C10.7796 48.4236 10.5053 48.6446 10.3117 48.9307C10.1181 49.2169 10.0293 49.5643 10.0451 49.9731C10.0617 50.3989 10.1833 50.7496 10.4101 51.0251C10.6368 51.2977 10.9345 51.498 11.3034 51.6258C11.6722 51.7508 12.078 51.8047 12.5208 51.7875C12.975 51.7699 13.374 51.6833 13.7176 51.5278C14.0583 51.3696 14.3226 51.1461 14.5104 50.8573C14.6952 50.5658 14.7795 50.21 14.7632 49.7899Z" fill="black"/>
<path d="M17.4309 38.0968C17.295 38.4887 17.0979 38.8188 16.8395 39.087C16.5784 39.3543 16.2744 39.533 15.9274 39.6232C15.5777 39.7124 15.2016 39.6872 14.799 39.5476C14.4447 39.4247 14.1817 39.2554 14.01 39.0395C13.8356 38.8226 13.7258 38.5756 13.6806 38.2983C13.6354 38.0211 13.6309 37.7308 13.6668 37.4276C13.7011 37.1207 13.7492 36.8172 13.8112 36.517C13.8932 36.1244 13.9626 35.8072 14.0194 35.5653C14.0745 35.3198 14.0898 35.1327 14.0653 35.0039C14.0417 34.8724 13.9534 34.7802 13.8004 34.7271L13.7682 34.716C13.3709 34.5782 13.0246 34.5799 12.7291 34.721C12.4345 34.8594 12.2114 35.1474 12.0597 35.5849C11.9024 36.0385 11.8784 36.4286 11.9877 36.7551C12.0969 37.0817 12.2462 37.3364 12.4353 37.5192L11.8005 38.3094C11.4806 38.0181 11.2625 37.7019 11.1462 37.3609C11.0281 37.0163 10.9829 36.6698 11.0104 36.3216C11.0362 35.9697 11.1031 35.6381 11.2111 35.3267C11.2799 35.1281 11.3832 34.9083 11.5209 34.6674C11.6568 34.4228 11.8391 34.2049 12.0678 34.0136C12.2974 33.8196 12.5865 33.6928 12.9349 33.6332C13.2833 33.5736 13.7031 33.629 14.1943 33.7993L18.2688 35.2121L17.9393 36.1623L17.1019 35.8719L17.0851 35.9202C17.197 36.0312 17.3034 36.1884 17.4042 36.3917C17.5051 36.5951 17.5659 36.8402 17.5868 37.127C17.6076 37.4139 17.5556 37.7371 17.4309 38.0968ZM16.6276 37.6559C16.7579 37.2801 16.7939 36.9378 16.7356 36.6289C16.6783 36.3174 16.5557 36.0554 16.3677 35.8429C16.1808 35.6277 15.9584 35.4754 15.7008 35.3861L14.8311 35.0845C14.8655 35.1415 14.879 35.2455 14.8718 35.3963C14.8629 35.5436 14.8424 35.7109 14.8105 35.8983C14.7769 36.082 14.7419 36.2609 14.7057 36.4347C14.6677 36.605 14.6377 36.7434 14.6158 36.8501C14.5624 37.1082 14.5347 37.3572 14.5327 37.597C14.529 37.8333 14.5754 38.0418 14.6721 38.2227C14.767 38.3999 14.9352 38.5304 15.1768 38.6142C15.5069 38.7286 15.7989 38.6931 16.0527 38.5075C16.3047 38.3182 16.4964 38.0344 16.6276 37.6559Z" fill="black"/>
<path d="M15.1692 23.41L22.2115 28.5647L21.6175 29.3762L14.5752 24.2215L15.1692 23.41Z" fill="black"/>
<path d="M21.9103 16.3388L27.5357 23.0111L26.7669 23.6593L21.1414 16.987L21.9103 16.3388Z" fill="black"/>
<path d="M35.5781 18.3118C34.9978 18.5588 34.4427 18.6437 33.9129 18.5667C33.3845 18.4859 32.9081 18.2626 32.4838 17.8967C32.0609 17.5271 31.7182 17.0339 31.4556 16.417C31.1931 15.8001 31.0741 15.2085 31.0986 14.6423C31.1246 14.0724 31.284 13.5692 31.5768 13.1327C31.8711 12.6925 32.2901 12.3567 32.8339 12.1253C33.1475 11.9918 33.4795 11.9122 33.8299 11.8866C34.1802 11.861 34.5309 11.9124 34.882 12.0409C35.232 12.1667 35.5632 12.3901 35.8758 12.7109C36.1883 13.0317 36.4642 13.4732 36.7034 14.0352L36.8703 14.4273L32.2279 16.4032L31.8874 15.6033L35.5888 14.0279C35.4442 13.6881 35.2471 13.4138 34.9977 13.205C34.7509 12.9951 34.4705 12.8659 34.1566 12.8174C33.8452 12.7678 33.5222 12.8142 33.1877 12.9566C32.8191 13.1134 32.5391 13.3407 32.3478 13.6382C32.1579 13.9321 32.0528 14.2547 32.0326 14.606C32.0123 14.9574 32.0728 15.299 32.2141 15.631L32.4411 16.1643C32.6347 16.6191 32.8772 16.9713 33.1687 17.2208C33.4616 17.4666 33.7843 17.6118 34.1367 17.6563C34.488 17.6982 34.8505 17.6396 35.2243 17.4805C35.4674 17.3771 35.6726 17.2496 35.8397 17.0982C36.0083 16.9431 36.135 16.7656 36.2198 16.5659C36.3035 16.3636 36.3401 16.1411 36.3295 15.8986L37.3303 15.7691C37.3652 16.1124 37.3205 16.4463 37.1963 16.7709C37.0709 17.0929 36.8721 17.3875 36.5998 17.6546C36.3265 17.9192 35.9859 18.1382 35.5781 18.3118Z" fill="black"/>
<path d="M44.0613 15.8728L43.574 9.34549L44.5429 9.27315L44.6165 10.259L44.6845 10.254C44.7794 9.92212 44.9751 9.64399 45.2717 9.41958C45.5683 9.19517 45.9121 9.06837 46.3031 9.03918C46.3767 9.03369 46.4689 9.02823 46.5796 9.02281C46.6903 9.0174 46.7742 9.01541 46.8313 9.01684L46.9074 10.0367C46.8728 10.0308 46.7939 10.0238 46.6709 10.0159C46.5504 10.005 46.4236 10.0045 46.2904 10.0144C45.9731 10.0381 45.6948 10.1258 45.4554 10.2776C45.2187 10.4263 45.0367 10.6222 44.9096 10.8653C44.7851 11.1054 44.7338 11.3727 44.7558 11.6674L45.0642 15.7979L44.0613 15.8728Z" fill="black"/>
<path d="M53.6605 18.5795C53.4955 18.5368 53.3519 18.4849 53.2298 18.424C53.1069 18.3658 53.024 18.3179 52.9809 18.2803L53.4506 17.4863C53.6714 17.6081 53.8747 17.6842 54.0605 17.7147C54.2463 17.7452 54.4282 17.7057 54.6062 17.5963C54.7863 17.4903 54.9771 17.2917 55.1786 17.0006L55.4883 16.5525L54.7944 9.57631L55.8505 9.84976L56.2922 15.3521L56.3582 15.3691L59.4148 10.7727L60.4708 11.0461L55.9012 17.6102C55.6954 17.9062 55.4754 18.1382 55.2411 18.3065C55.006 18.4775 54.7567 18.5846 54.4932 18.6278C54.2323 18.6718 53.9548 18.6557 53.6605 18.5795Z" fill="black"/>
<path d="M65.0685 20.575C64.8911 20.4622 64.7792 20.3019 64.733 20.094C64.6867 19.8862 64.72 19.6935 64.8328 19.5161C64.9456 19.3387 65.1059 19.2269 65.3137 19.1806C65.5216 19.1344 65.7142 19.1676 65.8916 19.2804C66.069 19.3932 66.1808 19.5535 66.2271 19.7614C66.2734 19.9692 66.2401 20.1619 66.1273 20.3393C66.0526 20.4567 65.9541 20.5456 65.8316 20.6057C65.7116 20.6675 65.5834 20.697 65.447 20.6945C65.3145 20.691 65.1884 20.6512 65.0685 20.575Z" fill="black"/>
<path d="M76.7324 32.7269L76.3077 31.7036L85.5967 31.318L86.0149 32.3256L79.1826 38.6307L78.7579 37.6074L84.5436 32.3825L84.5175 32.3195L76.7324 32.7269ZM80.0379 31.798L81.7498 35.9227L80.8839 36.2821L79.172 32.1573L80.0379 31.798Z" fill="black"/>
<path d="M80.2891 45.2939L86.8205 44.8654L86.8864 45.8689L80.355 46.2974L80.2891 45.2939ZM87.9426 45.3042C87.9297 45.1086 87.9853 44.9356 88.1092 44.7851C88.2334 44.6375 88.389 44.5575 88.5761 44.5452C88.7632 44.533 88.9279 44.5919 89.0702 44.7221C89.2128 44.8551 89.2905 45.0194 89.3033 45.215C89.3161 45.4106 89.2605 45.5822 89.1364 45.7298C89.0124 45.8803 88.8569 45.9617 88.6698 45.974C88.4827 45.9863 88.3179 45.9259 88.1753 45.7929C88.033 45.6627 87.9554 45.4998 87.9426 45.3042Z" fill="black"/>
<path d="M77.5888 52.9855C77.6281 52.8197 77.6769 52.675 77.7354 52.5517C77.791 52.4276 77.8372 52.3437 77.8738 52.2998L78.6774 52.7529C78.5603 52.9762 78.4884 53.1811 78.4618 53.3675C78.4351 53.5538 78.4784 53.7349 78.5915 53.9106C78.7012 54.0884 78.9037 54.275 79.199 54.4705L79.6534 54.7708L86.6136 53.9319L86.3622 54.9935L80.8703 55.5495L80.8546 55.6158L85.5136 58.5762L85.2622 59.6377L78.6045 55.2055C78.3043 55.006 78.0677 54.7908 77.8947 54.5601C77.7188 54.3286 77.6065 54.0816 77.5578 53.819C77.5084 53.5591 77.5187 53.2813 77.5888 52.9855Z" fill="black"/>
<path d="M75.178 65.3487C75.4089 65.0041 75.6833 64.7348 76.0013 64.5409C76.3216 64.3486 76.661 64.2528 77.0195 64.2537C77.3804 64.256 77.7378 64.3758 78.0919 64.613C78.4034 64.8217 78.6149 65.0523 78.7262 65.3047C78.8398 65.5586 78.8834 65.8255 78.8567 66.1051C78.8301 66.3848 78.7609 66.6667 78.6492 66.9509C78.5382 67.239 78.4147 67.5204 78.2785 67.7951C78.0996 68.154 77.952 68.4432 77.8357 68.6628C77.7202 68.8863 77.6579 69.0634 77.649 69.1942C77.6384 69.3273 77.7004 69.439 77.8349 69.5291L77.8633 69.5481C78.2126 69.7821 78.548 69.8683 78.8696 69.8068C79.1897 69.7477 79.4786 69.5257 79.7363 69.141C80.0035 68.7421 80.1257 68.3709 80.1028 68.0273C80.08 67.6837 80.0002 67.3995 79.8637 67.1746L80.6782 66.5713C80.9137 66.9343 81.0445 67.2955 81.0705 67.6548C81.0972 68.0181 81.0531 68.3647 80.9381 68.6946C80.8239 69.0284 80.6751 69.3322 80.4917 69.606C80.3747 69.7807 80.219 69.9671 80.0247 70.1652C79.8312 70.3672 79.5996 70.5318 79.3298 70.6588C79.0585 70.7882 78.7468 70.8375 78.3946 70.8068C78.0425 70.7761 77.6505 70.616 77.2186 70.3267L73.6357 67.9264L74.1955 67.0909L74.9319 67.5842L74.9603 67.5418C74.8803 67.4061 74.8172 67.2271 74.7713 67.0048C74.7253 66.7825 74.7286 66.5299 74.7812 66.2472C74.8339 65.9644 74.9662 65.6649 75.178 65.3487ZM75.8432 65.9789C75.6218 66.3094 75.5002 66.6313 75.4782 66.9449C75.4546 67.2608 75.5068 67.5454 75.6346 67.7986C75.7609 68.0541 75.9373 68.2578 76.1639 68.4096L76.9286 68.9219C76.9098 68.8581 76.9231 68.7541 76.9683 68.61C77.0143 68.4699 77.0765 68.3132 77.1549 68.14C77.2341 67.9708 77.3133 67.8067 77.3924 67.6477C77.4724 67.4927 77.5365 67.3664 77.5848 67.2688C77.7019 67.0326 77.7919 66.7988 77.8546 66.5673C77.9182 66.3398 77.9261 66.1262 77.8785 65.9268C77.8317 65.7313 77.7021 65.5624 77.4897 65.4201C77.1993 65.2256 76.9079 65.1859 76.6153 65.3011C76.3235 65.4202 76.0661 65.6461 75.8432 65.9789Z" fill="black"/>
<path d="M66.9712 74.0654C67.4189 73.7539 67.8929 73.592 68.3931 73.5796C68.8949 73.5696 69.387 73.7048 69.8694 73.9852C70.3534 74.2679 70.7933 74.6938 71.1893 75.2628C71.5819 75.8271 71.8259 76.3841 71.9212 76.9339C72.0165 77.4836 71.9703 77.9917 71.7826 78.458C71.5948 78.9244 71.2748 79.315 70.8224 79.6298C70.4726 79.8732 70.1557 80.0071 69.8717 80.0317C69.587 80.0603 69.3399 80.0384 69.1304 79.9661C68.9202 79.8978 68.7523 79.8381 68.6268 79.787L68.5568 79.8357L70.3969 82.4801L69.5714 83.0545L64.5866 75.8909L65.3841 75.336L65.9585 76.1614L66.0565 76.0933C66.049 75.9532 66.0492 75.7695 66.0573 75.5424C66.067 75.3176 66.1351 75.0747 66.2615 74.8137C66.3895 74.555 66.6261 74.3056 66.9712 74.0654ZM67.3753 74.8849C67.0442 75.1153 66.8244 75.3963 66.7159 75.7279C66.6091 76.0618 66.6033 76.424 66.6986 76.8146C66.7955 77.2075 66.9851 77.6068 67.2674 78.0126C67.5465 78.4136 67.849 78.724 68.1749 78.9437C68.5025 79.1657 68.8389 79.2812 69.1843 79.29C69.5313 79.3013 69.8727 79.19 70.2085 78.9564C70.5582 78.713 70.7872 78.4204 70.8955 78.0785C71.003 77.7407 71.0088 77.3784 70.9128 76.9918C70.8162 76.6092 70.6364 76.2289 70.3735 75.8512C70.1074 75.4687 69.8073 75.1619 69.4733 74.9305C69.1385 74.7031 68.7916 74.5777 68.4326 74.5541C68.0728 74.5345 67.7204 74.6447 67.3753 74.8849Z" fill="black"/>
<path d="M56.2261 79.1383C56.6295 79.0416 57.0137 79.0298 57.3789 79.1029C57.7447 79.1788 58.0591 79.3386 58.3221 79.5823C58.5857 79.8288 58.7672 80.1592 58.8665 80.5736C58.954 80.9382 58.953 81.2511 58.8637 81.512C58.775 81.7758 58.6261 82.0014 58.4169 82.1889C58.2076 82.3763 57.9656 82.5366 57.6908 82.6697C57.4138 82.8062 57.1322 82.9293 56.8459 83.0388C56.471 83.1813 56.1664 83.2938 55.9321 83.3763C55.6956 83.4622 55.5297 83.5502 55.4344 83.6402C55.3364 83.7309 55.3063 83.855 55.344 84.0125L55.352 84.0456C55.45 84.4545 55.6381 84.7454 55.9162 84.9182C56.1915 85.0918 56.5543 85.1245 57.0046 85.0166C57.4715 84.9046 57.813 84.7146 58.0292 84.4466C58.2454 84.1786 58.3795 83.9156 58.4316 83.6577L59.4394 83.7667C59.3663 84.1932 59.2175 84.5473 58.993 84.829C58.7663 85.1142 58.4988 85.339 58.1906 85.5034C57.8803 85.6713 57.5649 85.7937 57.2444 85.8706C57.04 85.9196 56.7992 85.951 56.5221 85.9649C56.2429 85.9822 55.961 85.946 55.6766 85.8565C55.3895 85.7676 55.1269 85.5924 54.8889 85.3311C54.651 85.0697 54.4714 84.6862 54.3502 84.1807L53.3446 79.987L54.3225 79.7525L54.5292 80.6145L54.5789 80.6025C54.6121 80.4485 54.6872 80.2742 54.8041 80.0797C54.9211 79.8851 55.0948 79.7018 55.3252 79.5296C55.5556 79.3575 55.8559 79.2271 56.2261 79.1383ZM56.2876 80.0526C55.9008 80.1453 55.5931 80.2995 55.3643 80.515C55.1327 80.7312 54.9781 80.9757 54.9004 81.2485C54.8199 81.522 54.8114 81.7913 54.875 82.0565L55.0896 82.9516C55.1192 82.892 55.1994 82.8245 55.3303 82.7493C55.4592 82.6775 55.6112 82.6045 55.7862 82.5304C55.9591 82.4598 56.1286 82.3928 56.2946 82.3297C56.4585 82.2699 56.5912 82.2205 56.6929 82.1816C56.9391 82.0875 57.1638 81.9766 57.3669 81.849C57.5679 81.7249 57.7186 81.5734 57.8188 81.3945C57.917 81.219 57.9363 81.007 57.8766 80.7584C57.7952 80.4186 57.6079 80.1918 57.3147 80.078C57.0195 79.9677 56.6771 79.9592 56.2876 80.0526Z" fill="black"/>
<path d="M53.6061 50.86C53.4987 50.9675 53.3516 51.0354 53.1819 51.0354C52.8538 51.0354 52.5822 50.7639 52.5822 50.4358L52.5822 44.168L46.3144 44.168C45.9864 44.168 45.7148 43.8965 45.7148 43.5684C45.7148 43.2403 45.9864 42.9687 46.3144 42.9687L53.1819 42.9687C53.51 42.9687 53.7815 43.2403 53.7815 43.5684L53.7815 50.4358C53.7815 50.6055 53.7136 50.7526 53.6061 50.86Z" fill="#FF6E2F"/>
<path d="M53.512 44.0893L43.9915 53.6098C43.7596 53.8417 43.3749 53.8417 43.143 53.6098C42.9111 53.3779 42.9111 52.9932 43.143 52.7613L52.6635 43.2408C52.8954 43.0089 53.2801 43.0089 53.512 43.2408C53.744 43.4727 53.744 43.8574 53.512 44.0893Z" fill="#FF6E2F"/>
<defs>
<filter id="filter0_b_1093_2019" x="-30" y="-30" width="156" height="156" filterUnits="userSpaceOnUse" color-interpolation-filters="sRGB">
<feFlood flood-opacity="0" result="BackgroundImageFix"/>
<feGaussianBlur in="BackgroundImageFix" stdDeviation="15"/>
<feComposite in2="SourceAlpha" operator="in" result="effect1_backgroundBlur_1093_2019"/>
<feBlend mode="normal" in="SourceGraphic" in2="effect1_backgroundBlur_1093_2019" result="shape"/>
</filter>
</defs>
</svg>
