<svg width="141" height="48" viewBox="0 0 141 48" fill="none" xmlns="http://www.w3.org/2000/svg">
<path d="M49.6028 15.9075C50.8925 15.9075 52.0989 15.075 52.0989 13.5765C52.0989 12.078 50.8925 11.2872 49.6028 11.2872C48.3964 11.2872 47.1484 12.078 47.1484 13.5765C47.1484 15.075 48.3964 15.9075 49.6028 15.9075ZM47.4396 19.4872V40.7573H51.8077V19.4872H47.4396Z" fill="white"/>
<path d="M75.0109 19.4872H70.3516L64.9018 35.7624H64.8186L58.8696 19.4872H54.1686L61.8649 38.5929C62.6553 40.5908 62.0729 42.2558 61.2825 43.2132C60.3256 44.3787 58.9528 44.5035 57.1223 44.2538H56.7479V47.5838C57.5799 47.7919 58.62 48 59.868 48C63.945 48 65.3178 45.3777 66.5242 42.0893L75.0109 19.4872Z" fill="white"/>
<path d="M89.2949 25.0649C89.2949 27.1045 87.298 27.5207 84.0115 28.1451C78.6865 29.1857 75.2336 30.6426 75.2336 35.3045C75.2336 38.8842 77.8961 41.3817 82.2226 41.3817C85.5091 41.3817 87.922 40.0913 89.2533 38.2182H89.3365C89.7525 40.2995 90.8341 41.132 93.1638 41.132C93.9959 41.132 94.7031 41.0487 95.7015 40.6741V38.5929C93.9959 38.7594 93.663 37.9685 93.663 36.47V26.3553C93.663 20.6943 90.1685 18.9045 85.4675 18.9045C79.0609 18.9045 76.44 22.1096 76.232 26.1888H80.4754C80.6834 23.4415 81.973 22.3593 85.4675 22.3593C88.3796 22.3593 89.2949 23.5248 89.2949 25.0649ZM83.1795 37.9269C80.8082 37.9269 79.6433 36.8446 79.6433 34.8883C79.6433 32.7238 81.2242 31.6832 84.8435 30.8923C86.882 30.4761 88.5877 29.9766 89.2949 29.4771V32.6822C89.2949 36.137 86.7988 37.9269 83.1795 37.9269Z" fill="white"/>
<path d="M113.191 10.9958V22.0679H113.108C111.985 20.4446 109.905 18.9045 106.618 18.9045C101.169 18.9045 97.1332 23.1502 97.1332 30.1431C97.1332 37.136 101.169 41.3817 106.618 41.3817C109.905 41.3817 111.985 39.7583 113.108 38.3015H113.191V40.7573H117.56V10.9958H113.191ZM107.367 37.802C103.54 37.802 101.501 34.3055 101.501 30.1431C101.501 25.9806 103.54 22.4842 107.367 22.4842C110.945 22.4842 113.15 25.3979 113.15 30.1431C113.15 34.8467 110.945 37.802 107.367 37.802Z" fill="white"/>
<path d="M134.593 25.0649C134.593 27.1045 132.597 27.5207 129.31 28.1451C123.985 29.1857 120.532 30.6426 120.532 35.3045C120.532 38.8842 123.195 41.3817 127.521 41.3817C130.808 41.3817 133.221 40.0913 134.552 38.2182H134.635C135.051 40.2995 136.133 41.132 138.462 41.132C139.294 41.132 140.002 41.0487 141 40.6741V38.5929C139.294 38.7594 138.962 37.9685 138.962 36.47V26.3553C138.962 20.6943 135.467 18.9045 130.766 18.9045C124.359 18.9045 121.739 22.1096 121.531 26.1888H125.774C125.982 23.4415 127.272 22.3593 130.766 22.3593C133.678 22.3593 134.593 23.5248 134.593 25.0649ZM128.478 37.9269C126.107 37.9269 124.942 36.8446 124.942 34.8883C124.942 32.7238 126.523 31.6832 130.142 30.8923C132.18 30.4761 133.886 29.9766 134.593 29.4771V32.6822C134.593 36.137 132.097 37.9269 128.478 37.9269Z" fill="white"/>
<path d="M9.10052 43.1079C5.34692 40.1697 2.54592 36.0161 1.09899 31.2423C-0.347952 26.4685 -0.366548 21.3197 1.04586 16.5337C2.45827 11.7477 5.22918 7.57035 8.96144 4.60028C12.6937 1.6302 17.1957 0.0199019 21.8222 0.000183277C26.4488 -0.0195353 30.9623 1.55233 34.7159 4.49051C38.4695 7.42868 41.2705 11.5823 42.7174 16.3561C44.1643 21.1299 44.1829 26.2787 42.7705 31.0647C41.3581 35.8507 38.5872 40.028 34.8549 42.9981L32.0067 38.7744C34.9178 36.4577 37.0791 33.1993 38.1808 29.4663C39.2825 25.7332 39.268 21.7171 38.1394 17.9936C37.0108 14.27 34.826 11.0302 31.8982 8.73842C28.9704 6.44665 25.4498 5.22059 21.8411 5.23597C18.2325 5.25135 14.7209 6.50738 11.8097 8.82404C8.89856 11.1407 6.73725 14.3991 5.63557 18.1321C4.5339 21.8652 4.5484 25.8813 5.67701 29.6048C6.80562 33.3284 8.9904 36.5682 11.9182 38.86L9.10052 43.1079Z" fill="white"/>
<path d="M35.1013 22.3539C35.1013 24.0035 29.1945 25.3408 21.9082 25.3408C14.6219 25.3408 8.71513 24.0035 8.71513 22.3539C8.71513 20.7043 14.6219 19.367 21.9082 19.367C29.1945 19.367 35.1013 20.7043 35.1013 22.3539Z" fill="white"/>
</svg>
